# AST/ASF file generated using VICON BodyLanguage
# -----------------------------------------------
:version 1.10
:name VICON
:units
  mass 1.0
  length 0.45
  angle deg
:documentation
   .ast/.asf automatically generated from VICON data using
   VICON BodyBuilder and BodyLanguage model FoxedUp or BRILLIANT.MOD
:root
   order TX TY TZ RX RY RZ
   axis XYZ
   position 0 0 0  
   orientation 0 -0 0 
:bonedata
  begin
     id 1 
     name lhipjoint
     direction 0.432694 -0.693742 0.575759 
     length 2.19277 
     axis 0 -0 0  XYZ
  end
  begin
     id 2 
     name lfemur
     direction 0.34202 -0.939693 0  
     length 6.69022  
     axis 0 -0 20  XYZ
    dof rx ry rz
    limits (-160.0 20.0)
           (-70.0 70.0)
           (-60.0 70.0)
  end
  begin
     id 3 
     name ltibia
     direction 0.34202 -0.939693 0   
     length 6.50337   
     axis 0 -0 20   XYZ
    dof rx
    limits (-10.0 170.0)
  end
  begin
     id 4 
     name lfoot
     direction 0.158999 -0.435969 0.885805   
     length 2.70564   
     axis -90 -1.13533e-015 20   XYZ
    dof rx rz
    limits (-45.0 90.0)
           (-70.0 20.0)
  end
  begin
     id 5 
     name ltoes
     direction -0.00592919 0.00964381 0.999936   
     length 1.29929   
     axis -90 -1.13533e-015 20   XYZ
    dof rx
    limits (-90.0 20.0)
  end
  begin
     id 6 
     name rhipjoint
     direction -0.414359 -0.700339 0.581234   
     length 2.17212  
     axis 0 -0 0  XYZ 
  end
  begin
     id 7 
     name rfemur
     direction -0.34202 -0.939693 0   
     length 7.17659   
     axis 0 -0 -20   XYZ
    dof rx ry rz
    limits (-160.0 20.0)
           (-70.0 70.0)
           (-70.0 60.0)
  end
  begin
     id 8 
     name rtibia
     direction -0.34202 -0.939693 0   
     length 6.36669   
     axis 0 -0 -20   XYZ
    dof rx
    limits (-10.0 170.0)
 end
 begin
     id 9 
     name rfoot
     direction -0.137064 -0.37658 0.916188   
     length 2.22351  
     axis -90 1.13533e-015 -20   XYZ
    dof rx rz
    limits (-45.0 90.0)
           (-20.0 70.0)
  end
  begin
     id 10 
     name rtoes
     direction -0.000784077 -0.00289101 0.999996   
     length 1.09522   
     axis -90 1.13533e-015 -20   XYZ
    dof rx
    limits (-90.0 20.0)
  end
  begin
     id 11 
     name lowerback
     direction -0.0176242 0.984912 -0.172157   
     length 1.65301   
     axis 0 -0 0   XYZ
    dof rx ry rz
    limits (-20.0 45.0)
           (-30.0 30.0)
           (-30.0 30.0)
  end
  begin
     id 12 
     name upperback
     direction -0.00218128 0.998776 -0.0494072   
     length 1.67776   
     axis 0 -0 0   XYZ
    dof rx ry rz
    limits (-20.0 45.0)
           (-30.0 30.0)
           (-30.0 30.0)
  end
  begin
     id 13 
     name thorax
     direction 0.00544186 0.999658 0.0255711   
     length 1.72293   
     axis 0 -0 0   XYZ
    dof rx ry rz
    limits (-20.0 45.0)
           (-30.0 30.0)
           (-30.0 30.0)
  end
  begin
     id 14 
     name lowerneck
     direction -0.105325 0.983841 0.144785   
     length 2.14226   
     axis 0 -0 0   XYZ
    dof rx ry rz
    limits (-20.0 45.0)
           (-30.0 30.0)
           (-30.0 30.0)
  end
  begin
     id 15 
     name upperneck
     direction 0.0547957 0.988053 -0.144041   
     length 2.17508   
     axis 0 -0 0   XYZ
    dof rx ry rz
    limits (-20.0 45.0)
           (-30.0 30.0)
           (-30.0 30.0)
  end
  begin
     id 16
     name head
     direction 0.0247488 0.997534 -0.0656813  
     length 2.20048  
     axis 0 -0 0   XYZ
    dof rx ry rz
    limits (-20.0 45.0)
           (-30.0 30.0)
           (-30.0 30.0)
  end
  begin
     id 17 
     name lclavicle
     direction 0.820559 0.567247 -0.0701026  
     length 4.09615  
     axis 0 -0 0   XYZ
    dof ry rz
    limits (-20.0 10.0)
           (0.0 20.0)
  end
  begin
     id 18 
     name lhumerus
     direction 0.999977 -0.0067566 -9.96392e-005   
     length 4.59333   
     axis -180 -30 -90   XYZ
    dof rx ry rz
    limits (-60.0 90.0)
           (-90.0 90.0)
           (-90.0 90.0)
  end
  begin
     id 19
     name lradius
     direction 1 -4.48982e-011 -2.53425e-027   
     length 2.81151   
     axis -180 -30 -90   XYZ
    dof rx
    limits (-10.0 170.0)
  end
  begin
     id 20
     name lwrist
     direction 1 -4.48939e-011 -7.39254e-028   
     length 1.40576   
     axis 2.56395e-016 90 90   XYZ
    dof ry
    limits (-180.0 0.0)
 end
  begin
     id 21 
     name lhand
     direction 1 -4.48939e-011 -1.47851e-027   
     length 0.895651   
     axis 9.43423e-016 90 90   XYZ
    dof rx rz
    limits (-90.0 90.0)
           (-45.0 45.0)
  end
  begin
     id 22 
     name lfingers
     direction 1 -4.48978e-011 -2.95702e-027   
     length 0.722097   
     axis 1.88685e-015 90 90   XYZ
    dof rx
    limits (0.0 90.0)
  end
  begin
     id 23
     name lthumb
     direction 0.707107 -6.34931e-011 0.707107   
     length 1.03679   
     axis -90 45 -9.86935e-015   XYZ
    dof rx rz
    limits (-45.0 45.0)
           (-45.0 45.0)
  end
  begin
     id 24 
     name rclavicle
     direction -0.831414 0.553102 -0.0531864   
     length 4.24872  
     axis 0 -0 0   XYZ 
    dof ry rz
    limits (-10.0 20.0)
           (-20.0 0.0)
  end
  begin
     id 25 
     name rhumerus
     direction -0.999916 -0.000939607 0.0129331  
     length 4.74834   
     axis -180 30 90   XYZ
    dof rx ry rz
    limits (-90.0 60.0)
           (-90.0 90.0)
           (-90.0 90.0)
  end
  begin
     id 26 
     name rradius
     direction -1 -4.48956e-011 -1.31752e-027   
     length 2.79907   
     axis -180 30 90   XYZ
    dof rx
    limits (-10.0 170.0)
  end
  begin
     id 27 
     name rwrist
     direction -1 -4.4897e-011 -7.39254e-028   
     length 1.39954   
     axis 2.56395e-016 -90 -90   XYZ
    dof ry
    limits (-180.0 0.0)
  end
  begin
     id 28
     name rhand
     direction -0.999997 -0.00250697 0.000800838   
     length 0.953304   
     axis 9.43423e-016 -90 -90   XYZ
    dof rx rz
    limits (-90.0 90.0)
           (-45.0 45.0)
  end
  begin
     id 29
     name rfingers
     direction -1 -4.48954e-011 -2.95702e-027   
     length 0.763342   
     axis 1.88685e-015 -90 -90   XYZ
    dof rx
    limits (0.0 90.0)
  end
  begin
     id 30
     name rthumb
     direction -0.709701 -0.00217037 0.7045   
     length 1.10115   
     axis -90 -45 9.86935e-015   XYZ
    dof rx rz
    limits (-45.0 45.0)
           (-45.0 45.0)
  end
:hierarchy
  begin
    root lhipjoint rhipjoint lowerback
    lhipjoint lfemur
    lfemur ltibia
    ltibia lfoot
    lfoot ltoes
    rhipjoint rfemur
    rfemur rtibia
    rtibia rfoot
    rfoot rtoes
    lowerback upperback
    upperback thorax
    thorax lowerneck lclavicle rclavicle
    lowerneck upperneck
    upperneck head
    lclavicle lhumerus
    lhumerus lradius
    lradius lwrist
    lwrist lhand lthumb
    lhand lfingers
    rclavicle rhumerus
    rhumerus rradius
    rradius rwrist
    rwrist rhand rthumb
    rhand rfingers
  end

#!OML:ASF G:\ViconDB\ViconDB\414\test\team2\shane.ASF
:FULLY-SPECIFIED
:DEGREES
1
root 5.26198 16.3197 -34.6161 -5.95358 -2.17152 -7.68958
lowerback 6.93809 -0.353343 4.54413
upperback 5.5736 -0.298538 4.89428
thorax 1.89235 -0.107095 2.53081
lowerneck -17.7063 -1.65441 -3.67488
upperneck 17.821 -2.47528 5.56493
head 8.59526 -0.827224 2.18139
rclavicle 2.88238e-015 -2.14687e-014
rhumerus -24.6949 10.9908 -94.8547
rradius 31.0749
rwrist 33.2312
rhand -30.0262 -13.9696
rfingers 7.12502
rthumb -3.34278 -43.9231
lclavicle 2.88238e-015 -2.14687e-014
lhumerus -29.4236 -21.8501 97.5336
lradius 26.8395
lwrist -16.9588
lhand -41.0264 6.32835
lfingers 7.12502
lthumb -13.957 35.8399
rfemur 8.63851 -14.1127 22.8951
rtibia 28.8191
rfoot -30.5472 -2.23029
rtoes -9.83817
lfemur -12.6046 3.00742 0.567098
ltibia 67.0706
lfoot -18.7295 -1.33366
ltoes -10.5701
2
root 5.23739 16.3195 -34.5652 -6.03625 -2.61939 -7.51332
lowerback 7.00767 -0.199353 4.52816
upperback 5.64438 -0.0942398 4.863
thorax 1.92513 -0.00426486 2.49713
lowerneck -17.4684 -1.64633 -3.6155
upperneck 17.6959 -2.48348 5.57607
head 8.51026 -0.830369 2.17301
rclavicle 9.93923e-016 -5.08889e-014
rhumerus -23.45 10.8527 -94.9863
rradius 30.9351
rwrist 34.2098
rhand -30.237 -14.13
rfingers 7.12502
rthumb -3.54629 -44.0802
lclavicle 9.93923e-016 -5.08889e-014
lhumerus -29.9243 -22.0184 97.4494
lradius 26.7795
lwrist -17.1005
lhand -40.9423 6.3628
lfingers 7.12502
lthumb -13.876 35.8799
rfemur 9.09007 -13.9097 22.7141
rtibia 28.4732
rfoot -30.659 -1.92485
rtoes -9.25336
lfemur -13.4244 3.31982 0.222696
ltibia 68.1438
lfoot -19.4177 -1.00491
ltoes -10.612
3
root 5.20989 16.3135 -34.5136 -6.05752 -2.96839 -7.35582
lowerback 7.05231 -0.0311559 4.37393
upperback 5.75626 0.1169 4.90392
thorax 2.01401 0.0971165 2.61608
lowerneck -17.6771 -1.70041 -3.50202
upperneck 17.756 -2.55907 5.45159
head 8.56867 -0.867584 2.10285
rclavicle -7.85199e-015 -4.85035e-014
rhumerus -22.0659 11.0473 -95.031
rradius 30.8622
rwrist 34.2258
rhand -30.2262 -14.3627
rfingers 7.12502
rthumb -3.53594 -44.3131
lclavicle -7.85199e-015 -4.85035e-014
lhumerus -30.1474 -22.299 97.459
lradius 26.4665
lwrist -17.1395
lhand -40.8581 6.54072
lfingers 7.12502
lthumb -13.7949 36.0633
rfemur 9.45953 -13.9197 22.5228
rtibia 28.1776
rfoot -30.6809 -1.65705
rtoes -9.44197
lfemur -14.3704 3.71624 -0.0525601
ltibia 68.8634
lfoot -19.6446 -0.979818
ltoes -9.85759
4
root 5.18647 16.3112 -34.4542 -6.18953 -3.4876 -7.16233
lowerback 7.19232 0.14755 4.36294
upperback 5.82419 0.360235 4.82897
thorax 2.004 0.220007 2.5315
lowerneck -17.6224 -1.6983 -3.21682
upperneck 17.7763 -2.57518 5.16991
head 8.55893 -0.885962 1.95798
rclavicle -2.18663e-015 -7.15625e-015
rhumerus -20.9513 10.5617 -95.2563
rradius 30.7195
rwrist 34.9695
rhand -30.6352 -14.1756
rfingers 7.12502
rthumb -3.93084 -44.1191
lclavicle -2.18663e-015 -7.15625e-015
lhumerus -30.7528 -22.6288 97.4556
lradius 26.2776
lwrist -16.9261
lhand -40.8937 6.74581
lfingers 7.12502
lthumb -13.8292 36.2661
rfemur 9.98039 -13.674 22.2932
rtibia 27.8357
rfoot -30.6595 -1.44062
rtoes -9.47451
lfemur -15.031 4.14127 -0.419064
ltibia 69.4304
lfoot -20.0117 -1.53769
ltoes -8.94302
5
root 5.15738 16.3089 -34.3984 -6.33936 -3.81449 -6.97243
lowerback 7.42754 0.274285 4.25823
upperback 5.88905 0.537172 4.76789
thorax 1.93808 0.30599 2.51606
lowerneck -17.7181 -1.73592 -3.32366
upperneck 17.8727 -2.63784 5.34526
head 8.61574 -0.901968 2.02823
rclavicle 2.10712e-014 -1.35174e-014
rhumerus -19.8677 10.5663 -95.6919
rradius 31.0465
rwrist 33.7799
rhand -30.3945 -14.1648
rfingers 7.12502
rthumb -3.69838 -44.1125
lclavicle 2.10712e-014 -1.35174e-014
lhumerus -31.3467 -22.8704 97.3859
lradius 26.1682
lwrist -16.631
lhand -40.9186 6.77492
lfingers 7.12502
lthumb -13.8532 36.2936
rfemur 10.5516 -13.5 22.1206
rtibia 27.3966
rfoot -30.5512 -1.39582
rtoes -9.62131
lfemur -15.7124 4.27534 -0.771427
ltibia 69.6509
lfoot -20.4788 -1.94039
ltoes -8.82744
6
root 5.13736 16.3115 -34.3348 -6.45441 -4.22103 -6.75383
lowerback 7.59711 0.469243 4.28348
upperback 5.90774 0.809951 4.63646
thorax 1.86197 0.445249 2.348
lowerneck -17.7272 -1.80261 -3.31351
upperneck 17.9509 -2.7656 5.48199
head 8.65235 -0.945852 2.05768
rclavicle -9.34288e-015 -3.81667e-014
rhumerus -19.1207 10.4996 -96.0312
rradius 31.1801
rwrist 34.6161
rhand -30.7991 -14.6334
rfingers 7.12502
rthumb -4.08912 -44.5739
lclavicle -9.34288e-015 -3.81667e-014
lhumerus -31.9885 -22.8503 97.1795
lradius 25.7427
lwrist -17.2066
lhand -41.2108 5.76699
lfingers 7.12502
lthumb -14.1347 35.2662
rfemur 11.1183 -13.2079 21.9012
rtibia 26.9132
rfoot -30.4186 -1.30494
rtoes -9.91993
lfemur -16.2658 4.37586 -1.2001
ltibia 69.6225
lfoot -20.839 -2.55138
ltoes -9.29581
7
root 5.1149 16.3308 -34.2685 -6.51039 -4.54292 -6.48586
lowerback 7.70783 0.648973 4.17118
upperback 5.9368 1.04967 4.52125
thorax 1.82768 0.563894 2.27566
lowerneck -17.7944 -1.91737 -3.25258
upperneck 17.9742 -2.9261 5.41773
head 8.67832 -1.02255 2.00529
rclavicle -1.8487e-014 -2.38542e-014
rhumerus -18.316 10.0944 -96.4192
rradius 31.551
rwrist 34.8991
rhand -30.8713 -15.0718
rfingers 7.12502
rthumb -4.15887 -45.011
lclavicle -1.8487e-014 -2.38542e-014
lhumerus -32.7414 -23.3484 97.3103
lradius 25.7411
lwrist -16.3112
lhand -40.3853 6.27934
lfingers 7.12502
lthumb -13.3392 35.8324
rfemur 11.6478 -12.7392 21.7592
rtibia 26.3257
rfoot -30.2375 -1.6415
rtoes -10.4384
lfemur -16.9393 4.4208 -1.7696
ltibia 69.2502
lfoot -21.2146 -3.09593
ltoes -9.41884
8
root 5.10009 16.3277 -34.1927 -6.66048 -5.34324 -6.27096
lowerback 7.85178 0.973216 4.3263
upperback 6.01686 1.49509 4.29657
thorax 1.83784 0.796204 1.92784
lowerneck -17.8944 -2.00213 -3.00724
upperneck 18.0043 -3.09869 5.36755
head 8.71054 -1.08993 1.92538
rclavicle 3.77691e-015 1.19271e-014
rhumerus -17.9077 10.6205 -96.9745
rradius 32.425
rwrist 33.7504
rhand -31.0591 -15.4169
rfingers 7.12502
rthumb -4.34025 -45.3524
lclavicle 3.77691e-015 1.19271e-014
lhumerus -33.5116 -23.8091 97.2904
lradius 25.7589
lwrist -15.537
lhand -40.0863 6.53486
lfingers 7.12502
lthumb -13.051 36.1066
rfemur 12.3434 -12.0712 21.5499
rtibia 25.6907
rfoot -30.0167 -1.50329
rtoes -10.6061
lfemur -17.2386 5.03001 -2.12035
ltibia 68.7008
lfoot -21.8519 -4.00987
ltoes -10.0218
9
root 5.07592 16.3383 -34.1256 -6.61944 -5.46586 -6.12676
lowerback 7.95277 1.0968 4.3294
upperback 6.02399 1.66728 4.16493
thorax 1.79272 0.884679 1.77685
lowerneck -18.2233 -2.08418 -3.0376
upperneck 18.1667 -3.23113 5.48794
head 8.8341 -1.13413 1.95478
rclavicle 2.25621e-014 5.56597e-015
rhumerus -17.0625 10.5108 -97.435
rradius 32.6902
rwrist 33.8724
rhand -31.344 -15.6069
rfingers 7.12502
rthumb -4.61531 -45.5366
lclavicle 2.25621e-014 5.56597e-015
lhumerus -34.0311 -23.6606 97.0105
lradius 25.6155
lwrist -15.4383
lhand -39.87 6.47713
lfingers 7.12502
lthumb -12.8424 36.0621
rfemur 12.9311 -12.0132 21.4314
rtibia 24.8762
rfoot -29.6996 -1.37862
rtoes -10.5997
lfemur -17.9455 4.88234 -2.50885
ltibia 67.8554
lfoot -22.3221 -4.78611
ltoes -9.56513
10
root 5.06092 16.3462 -34.0549 -6.59126 -5.65904 -5.83505
lowerback 8.11817 1.27575 4.37865
upperback 5.9481 1.92589 3.89192
thorax 1.63275 1.01861 1.4441
lowerneck -18.3075 -2.23481 -2.97954
upperneck 18.1728 -3.49126 5.65546
head 8.8666 -1.23218 1.96821
rclavicle -3.27001e-014 -3.49861e-014
rhumerus -16.7683 11.1067 -98.0028
rradius 33.6799
rwrist 32.1887
rhand -31.6494 -15.807
rfingers 7.12502
rthumb -4.91023 -45.7301
lclavicle -3.27001e-014 -3.49861e-014
lhumerus -34.7663 -23.9266 96.857
lradius 25.2746
lwrist -15.3139
lhand -39.676 7.09329
lfingers 7.12502
lthumb -12.6554 36.6899
rfemur 13.4715 -11.8514 21.1172
rtibia 24.1731
rfoot -29.426 -1.30996
rtoes -10.7382
lfemur -18.5438 4.95509 -3.05073
ltibia 66.8749
lfoot -22.9668 -5.51155
ltoes -9.84222
11
root 5.04712 16.3614 -33.9716 -6.64256 -5.93302 -5.74049
lowerback 8.33074 1.46713 4.67087
upperback 5.87214 2.21818 3.67156
thorax 1.45967 1.17446 1.02648
lowerneck -18.4167 -2.40664 -3.13431
upperneck 18.2982 -3.75546 5.95041
head 8.95178 -1.33106 2.0608
rclavicle -7.55382e-015 9.54166e-015
rhumerus -16.3757 11.3609 -98.4888
rradius 34.2399
rwrist 31.9157
rhand -31.6662 -16.0859
rfingers 7.12502
rthumb -4.92647 -46.0086
lclavicle -7.55382e-015 9.54166e-015
lhumerus -35.5542 -24.0926 96.6866
lradius 24.9695
lwrist -15.1953
lhand -39.44 6.65939
lfingers 7.12502
lthumb -12.4279 36.2699
rfemur 14.2402 -11.6684 20.9836
rtibia 23.2942
rfoot -29.0956 -1.25698
rtoes -11.2052
lfemur -18.9699 4.94656 -3.37459
ltibia 65.6176
lfoot -23.2409 -6.12322
ltoes -9.74426
12
root 5.02952 16.3635 -33.8919 -6.59975 -6.12867 -5.41454
lowerback 8.40599 1.68537 4.49701
upperback 5.78796 2.50786 3.48274
thorax 1.33437 1.3157 0.903527
lowerneck -18.4902 -2.60785 -3.27691
upperneck 18.3463 -4.02901 6.10423
head 9.00219 -1.45023 2.1009
rclavicle -3.47873e-014 -2.82274e-014
rhumerus -16.0543 11.9061 -98.8637
rradius 34.7695
rwrist 31.546
rhand -31.9423 -16.4065
rfingers 7.12502
rthumb -5.193 -46.3229
lclavicle -3.47873e-014 -2.82274e-014
lhumerus -36.2122 -23.918 96.497
lradius 24.5401
lwrist -15.4581
lhand -39.5315 7.00078
lfingers 7.12502
lthumb -12.5161 36.6059
rfemur 14.9145 -11.462 20.6556
rtibia 22.2984
rfoot -28.6314 -1.18591
rtoes -11.2509
lfemur -19.5525 5.00258 -3.95427
ltibia 64.2103
lfoot -23.7713 -6.61065
ltoes -9.53712
13
root 5.0172 16.3825 -33.8055 -6.57476 -6.53189 -5.15523
lowerback 8.56817 1.93984 4.53065
upperback 5.70211 2.86355 3.23368
thorax 1.17604 1.49574 0.594642
lowerneck -18.613 -2.77547 -3.41834
upperneck 18.4097 -4.27571 6.34341
head 9.0686 -1.54604 2.17343
rclavicle 7.35503e-015 -2.22639e-014
rhumerus -15.7165 12.4368 -99.2307
rradius 35.438
rwrist 31.1212
rhand -31.9504 -16.4333
rfingers 7.12502
rthumb -5.20081 -46.3495
lclavicle 7.35503e-015 -2.22639e-014
lhumerus -37.3911 -24.224 96.5257
lradius 24.9331
lwrist -14.5941
lhand -38.8471 7.46995
lfingers 7.12502
lthumb -11.8562 37.1143
rfemur 15.7074 -11.164 20.36
rtibia 21.0581
rfoot -28.0265 -1.04626
rtoes -11.8378
lfemur -19.9327 5.29309 -4.45415
ltibia 62.5562
lfoot -24.193 -6.83089
ltoes -10.0045
